<?xml version="1.0" standalone="no"?>
<!DOCTYPE svg PUBLIC "-//W3C//DTD SVG 20010904//EN"
 "http://www.w3.org/TR/2001/REC-SVG-20010904/DTD/svg10.dtd">
<svg version="1.0" xmlns="http://www.w3.org/2000/svg"
 width="256.000000pt" height="256.000000pt" viewBox="0 0 256.000000 256.000000"
 preserveAspectRatio="xMidYMid meet">
<metadata>
Created by potrace 1.14, written by Peter Selinger 2001-2017
</metadata>
<g transform="translate(0.000000,256.000000) scale(0.100000,-0.100000)"
fill="#000000" stroke="none">
<path d="M243 2375 c-24 -17 -31 -53 -48 -230 -11 -116 -16 -170 -20 -200 -2
-16 -7 -66 -10 -110 -4 -44 -8 -87 -10 -95 -2 -8 -6 -53 -10 -100 -4 -47 -8
-92 -10 -100 -2 -8 -6 -44 -9 -80 -6 -64 -13 -132 -21 -200 -2 -19 -7 -69 -11
-110 -3 -41 -7 -82 -9 -90 -1 -8 -6 -51 -9 -95 -4 -44 -9 -91 -11 -105 -3 -22
-6 -49 -20 -190 -2 -19 -6 -69 -10 -110 -3 -41 -8 -82 -10 -90 -2 -8 -7 -47
-10 -85 -17 -185 -16 -192 27 -203 24 -6 417 -9 475 -3 23 2 42 46 48 106 3
33 8 76 11 95 2 19 7 58 9 85 3 28 7 61 10 75 2 14 7 54 10 90 3 36 8 81 10
100 8 64 25 214 30 265 3 28 8 66 10 85 5 36 9 66 20 177 4 34 10 75 14 90 l8
28 8 -30 c4 -16 15 -59 26 -95 10 -36 51 -175 90 -310 39 -135 100 -344 136
-465 36 -121 68 -230 70 -242 12 -52 26 -55 253 -56 197 0 212 1 231 19 11 11
21 29 24 39 3 11 36 128 75 260 72 243 133 454 213 735 48 166 50 167 62 35 3
-33 10 -94 15 -135 5 -41 12 -97 15 -125 8 -78 15 -137 20 -175 3 -19 7 -62
10 -95 3 -33 8 -71 10 -85 2 -14 7 -56 10 -95 4 -38 8 -77 10 -85 2 -8 7 -46
10 -85 3 -38 8 -79 10 -90 2 -11 4 -32 4 -46 1 -15 9 -37 20 -50 18 -23 21
-23 244 -24 123 0 238 3 255 7 35 9 46 40 38 109 -3 24 -8 69 -11 99 -6 67
-23 228 -29 290 -3 25 -8 72 -11 105 -3 33 -8 76 -10 95 -2 19 -7 64 -10 100
-4 36 -8 76 -10 90 -2 14 -7 59 -10 100 -4 41 -9 82 -10 90 -2 8 -6 51 -10 95
-3 44 -8 91 -10 105 -2 14 -6 57 -10 95 -3 39 -8 84 -10 100 -2 17 -7 62 -10
100 -4 39 -8 77 -10 85 -2 8 -6 53 -10 99 -4 47 -8 92 -10 100 -1 9 -6 54 -10
101 -5 47 -9 94 -11 105 -1 11 -3 37 -3 58 -1 26 -9 46 -26 62 l-24 25 -280 0
c-328 0 -317 3 -350 -110 -24 -84 -57 -195 -176 -585 -53 -176 -121 -401 -151
-500 -30 -99 -57 -187 -60 -195 -5 -13 -49 121 -149 460 -90 306 -257 858
-267 883 -6 15 -19 32 -29 37 -10 6 -137 10 -296 10 -231 0 -282 -3 -300 -15z"/>
</g>
</svg>
