<svg xmlns="http://www.w3.org/2000/svg" xmlns:xlink="http://www.w3.org/1999/xlink" width="442.928" height="489.021" viewBox="0 0 442.928 489.021"><defs><linearGradient id="a" x1="0.5" x2="0.5" y2="1" gradientUnits="objectBoundingBox"><stop offset="0" stop-color="#fff"/><stop offset="1" stop-color="#fff" stop-opacity="0.749"/></linearGradient></defs><path d="M1024.022,1045.054l-148.964,86a72.5,72.5,0,0,0-36.249,62.789v172.006a72.5,72.5,0,0,0,36.249,62.789l148.964,86a72.5,72.5,0,0,0,72.5,0l148.962-86a72.5,72.5,0,0,0,36.252-62.789V1193.847a72.5,72.5,0,0,0-36.252-62.789l-148.962-86A72.5,72.5,0,0,0,1024.022,1045.054Z" transform="translate(-838.809 -1035.34)" fill="url(#a)"/></svg>