<svg xmlns="http://www.w3.org/2000/svg" xmlns:xlink="http://www.w3.org/1999/xlink" width="478.928" height="525.021" viewBox="0 0 478.928 525.021"><defs><linearGradient id="a" x1="0.5" x2="0.5" y2="1" gradientUnits="objectBoundingBox"><stop offset="0" stop-color="#fff"/><stop offset="1" stop-color="#fff" stop-opacity="0.749"/></linearGradient><filter id="b" x="0" y="0" width="478.928" height="525.021" filterUnits="userSpaceOnUse"><feOffset dy="6" input="SourceAlpha"/><feGaussianBlur stdDeviation="6" result="c"/><feFlood flood-opacity="0.302"/><feComposite operator="in" in2="c"/><feComposite in="SourceGraphic"/></filter></defs><g transform="translate(-5986.536 592.51)"><g transform="matrix(1, 0, 0, 1, 5986.54, -592.51)" filter="url(#b)"><path d="M1024.022,1045.054l-148.964,86a72.5,72.5,0,0,0-36.249,62.789v172.006a72.5,72.5,0,0,0,36.249,62.789l148.964,86a72.5,72.5,0,0,0,72.5,0l148.962-86a72.5,72.5,0,0,0,36.252-62.789V1193.847a72.5,72.5,0,0,0-36.252-62.789l-148.962-86A72.5,72.5,0,0,0,1024.022,1045.054Z" transform="translate(-820.81 -1023.34)" fill="url(#a)"/></g><path d="M82.387.457C40.951.457,0,28.081,0,72.788c0,28.431,15.993,44.586,25.685,44.586,4,0,6.3-11.146,6.3-14.3,0-3.756-9.571-11.752-9.571-27.381,0-32.47,24.716-55.49,56.7-55.49,27.5,0,47.857,15.629,47.857,44.343,0,21.445-8.6,61.669-36.468,61.669-10.056,0-18.658-7.269-18.658-17.689,0-15.266,10.662-30.047,10.662-45.8,0-26.735-37.922-21.889-37.922,10.419,0,6.785.848,14.3,3.877,20.476C42.89,117.616,31.5,153.357,31.5,178.073c0,7.633,1.09,15.145,1.817,22.778,1.373,1.535.687,1.373,2.787.606C56.459,173.59,55.732,168.138,64.94,131.67c4.967,9.45,17.81,14.539,27.987,14.539,42.89,0,62.153-41.8,62.153-79.479C155.081,26.627,120.43.457,82.387.457Z" transform="translate(6148.459 -437.241)" fill="#00318a"/></g></svg>