<svg xmlns="http://www.w3.org/2000/svg" xmlns:xlink="http://www.w3.org/1999/xlink" width="478.928" height="525.021" viewBox="0 0 478.928 525.021"><defs><linearGradient id="a" x1="0.5" x2="0.5" y2="1" gradientUnits="objectBoundingBox"><stop offset="0" stop-color="#fff"/><stop offset="1" stop-color="#fff" stop-opacity="0.749"/></linearGradient><filter id="b" x="0" y="0" width="478.928" height="525.021" filterUnits="userSpaceOnUse"><feOffset dy="6" input="SourceAlpha"/><feGaussianBlur stdDeviation="6" result="c"/><feFlood flood-opacity="0.302"/><feComposite operator="in" in2="c"/><feComposite in="SourceGraphic"/></filter></defs><g transform="translate(-5438.536 592.51)"><g transform="matrix(1, 0, 0, 1, 5438.54, -592.51)" filter="url(#b)"><path d="M1024.022,1045.054l-148.964,86a72.5,72.5,0,0,0-36.249,62.789v172.006a72.5,72.5,0,0,0,36.249,62.789l148.964,86a72.5,72.5,0,0,0,72.5,0l148.962-86a72.5,72.5,0,0,0,36.252-62.789V1193.847a72.5,72.5,0,0,0-36.252-62.789l-148.962-86A72.5,72.5,0,0,0,1024.022,1045.054Z" transform="translate(-820.81 -1023.34)" fill="url(#a)"/></g><path d="M185.554,45.242c.131,1.837.131,3.675.131,5.512,0,56.033-42.648,120.6-120.6,120.6A119.779,119.779,0,0,1,0,152.323a87.681,87.681,0,0,0,10.236.525,84.886,84.886,0,0,0,52.622-18.109,42.461,42.461,0,0,1-39.63-29.395,53.451,53.451,0,0,0,8.005.656,44.829,44.829,0,0,0,11.154-1.443A42.392,42.392,0,0,1,8.4,62.957v-.525a42.687,42.687,0,0,0,19.159,5.38,42.449,42.449,0,0,1-13.122-56.69,120.481,120.481,0,0,0,87.4,44.354,47.849,47.849,0,0,1-1.05-9.71,42.426,42.426,0,0,1,73.355-29,83.45,83.45,0,0,0,26.9-10.236A42.272,42.272,0,0,1,182.4,29.888a84.971,84.971,0,0,0,24.408-6.561,91.113,91.113,0,0,1-21.258,21.914Z" transform="translate(5574.594 -423.365)" fill="#00318a"/></g></svg>