<svg xmlns="http://www.w3.org/2000/svg" xmlns:xlink="http://www.w3.org/1999/xlink" width="478.928" height="525.021" viewBox="0 0 478.928 525.021"><defs><linearGradient id="a" x1="0.5" x2="0.5" y2="1" gradientUnits="objectBoundingBox"><stop offset="0" stop-color="#fff"/><stop offset="1" stop-color="#fff" stop-opacity="0.749"/></linearGradient><filter id="b" x="0" y="0" width="478.928" height="525.021" filterUnits="userSpaceOnUse"><feOffset dy="6" input="SourceAlpha"/><feGaussianBlur stdDeviation="6" result="c"/><feFlood flood-opacity="0.302"/><feComposite operator="in" in2="c"/><feComposite in="SourceGraphic"/></filter></defs><g transform="translate(-4890.536 592.51)"><g transform="matrix(1, 0, 0, 1, 4890.54, -592.51)" filter="url(#b)"><path d="M1024.022,1045.054l-148.964,86a72.5,72.5,0,0,0-36.249,62.789v172.006a72.5,72.5,0,0,0,36.249,62.789l148.964,86a72.5,72.5,0,0,0,72.5,0l148.962-86a72.5,72.5,0,0,0,36.252-62.789V1193.847a72.5,72.5,0,0,0-36.252-62.789l-148.962-86A72.5,72.5,0,0,0,1024.022,1045.054Z" transform="translate(-820.81 -1023.34)" fill="url(#a)"/></g><path d="M102.492,113.382l5.6-36.479h-35V53.23c0-9.98,4.89-19.708,20.566-19.708h15.913V2.464A194.053,194.053,0,0,0,81.319,0C52.494,0,33.652,17.472,33.652,49.1V76.9H1.609v36.479H33.652v88.186H73.087V113.382Z" transform="translate(5074.412 -436.784)" fill="#00318a"/></g></svg>