<svg xmlns="http://www.w3.org/2000/svg" xmlns:xlink="http://www.w3.org/1999/xlink" width="366.191" height="34.374" viewBox="0 0 366.191 34.374"><defs><linearGradient id="a" x1="0.994" y1="0.47" x2="0.745" y2="0.487" gradientUnits="objectBoundingBox"><stop offset="0" stop-opacity="0.502"/><stop offset="0.145" stop-opacity="0.29"/><stop offset="1" stop-opacity="0"/></linearGradient><linearGradient id="b" x1="0" y1="0.456" x2="0.264" y2="0.472" xlink:href="#a"/></defs><g transform="translate(-1497.951 -1069.064)"><g transform="translate(1497.951 1069.064)"><g transform="translate(47.431 0.475)" opacity="0.75"><g transform="translate(54.46 28.46)"><path d="M1372.106,190.53q-.463-1.181-.9-2.35t-.879-2.349h-12.292q-.44,1.18-.891,2.349t-.891,2.35a1.478,1.478,0,0,1-.236.425h16.314A1.567,1.567,0,0,1,1372.106,190.53Z" transform="translate(-1356.015 -185.831)" fill="#00318a"/></g><g transform="translate(276.977)"><path d="M1673.252,148.106h-12.924a16.284,16.284,0,0,1,1.871.891q.788.464,1.493.961a15.441,15.441,0,0,1,1.238.96,5.885,5.885,0,0,1,.846.88,1.288,1.288,0,0,1,.312.717,1.068,1.068,0,0,1-.151.555,3.5,3.5,0,0,1-.451.579l-3.541,3.773a1.133,1.133,0,0,1-.787.393,1.007,1.007,0,0,1-.591-.185,7.237,7.237,0,0,1-.59-.463l-.209-.185q-.463-.393-1.03-.81a9.216,9.216,0,0,0-1.215-.752,8.349,8.349,0,0,0-1.679-.646,3.854,3.854,0,0,0-.875-.126,7.938,7.938,0,0,0-1.7.124,3.98,3.98,0,0,0-1.181.405,2.243,2.243,0,0,0-.81.729,2.131,2.131,0,0,0,.023,2.222,3.186,3.186,0,0,0,.972.879,8.939,8.939,0,0,0,1.608.764q.961.36,2.234.776,2.455.81,4.526,1.7a15.293,15.293,0,0,1,3.576,2.106,8.721,8.721,0,0,1,2.35,2.905,9.079,9.079,0,0,1,.844,4.1,10.13,10.13,0,0,1-1.041,4.618,10.559,10.559,0,0,1-2.858,3.529,13.311,13.311,0,0,1-4.077,2.186h13.75a1.157,1.157,0,0,1-.149-.588V148.766A1.074,1.074,0,0,1,1673.252,148.106Z" transform="translate(-1650.972 -148.106)" fill="#00318a"/></g><g transform="translate(66.392)"><path d="M1388.219,181.69a1.171,1.171,0,0,1-.146-.588l3.31-32.337a1.221,1.221,0,0,1,.286-.66h-19.838a2.619,2.619,0,0,1,.294.313l.579,1.319,12.153,31.342a.751.751,0,0,1,.021.611Z" transform="translate(-1371.831 -148.106)" fill="#00318a"/></g><g transform="translate(95.891)"><path d="M1423.856,148.627a1.481,1.481,0,0,1,.325-.521h-13.248a1.333,1.333,0,0,1,.285.521l6.3,21.017Z" transform="translate(-1410.933 -148.106)" fill="#00318a"/></g><g transform="translate(91.128 15.15)"><path d="M1412.028,186.15l-5.208-17.962-2.014,17.847a1.128,1.128,0,0,1-.186.588h7.657A.884.884,0,0,1,1412.028,186.15Z" transform="translate(-1404.62 -168.188)" fill="#00318a"/></g><g transform="translate(59.07 10.451)"><path d="M1363.909,167.26q-.44,1.388-.891,2.743t-.892,2.534h7.106l-3.542-10.578q-.439,1.181-.891,2.546T1363.909,167.26Z" transform="translate(-1362.126 -161.959)" fill="#00318a"/></g><g transform="translate(106.181 15.103)"><path d="M1432.067,186.02l-2.013-17.894-5.208,18.009a1.214,1.214,0,0,1-.271.472h7.676A1.15,1.15,0,0,1,1432.067,186.02Z" transform="translate(-1424.573 -168.126)" fill="#00318a"/></g><path d="M1300.237,181.475a.755.755,0,0,1-.072.216h13.365a1,1,0,0,1-.238-.659V155.687h-7.963a1.075,1.075,0,0,1-.775-.3,1.163,1.163,0,0,1-.312-.877v-5.747a.948.948,0,0,1,.238-.657h-4.81a1.153,1.153,0,0,1,.244.749v5.724a1.205,1.205,0,0,1-.278.75.963.963,0,0,1-.81.358h-15v5.74H1295.4a1.218,1.218,0,0,1,.729.208.8.8,0,0,1,.29.695v5a.96.96,0,0,1-.255.625.916.916,0,0,1-.741.3h-11.6v5.925h15.555a.93.93,0,0,1,1.042,1.062v5.816A.575.575,0,0,1,1300.237,181.475Z" transform="translate(-1283.825 -148.106)" fill="#00318a"/><g transform="translate(38.195)"><path d="M1342.114,181.195l12.568-32.544a.686.686,0,0,1,.151-.3,1.652,1.652,0,0,1,.253-.243h-11.592a1.057,1.057,0,0,1,.287.657v5.747a1.3,1.3,0,0,1-.289.8.971.971,0,0,1-.822.381h-7.986v25.345a1.08,1.08,0,0,1-.229.659h7.623A.666.666,0,0,1,1342.114,181.195Z" transform="translate(-1334.455 -148.106)" fill="#00318a"/></g><g transform="translate(237.904 7.65)"><path d="M1601.641,160.932a8.959,8.959,0,0,0-1.815,2.928,10.236,10.236,0,0,0,0,7.165,8.853,8.853,0,0,0,1.815,2.9,8.443,8.443,0,0,0,2.763,1.945,9.123,9.123,0,0,0,7.039,0,8.423,8.423,0,0,0,2.774-1.945,8.85,8.85,0,0,0,1.815-2.9,10.246,10.246,0,0,0,0-7.165,8.956,8.956,0,0,0-1.815-2.928,8.626,8.626,0,0,0-12.575,0Z" transform="translate(-1599.179 -158.247)" fill="#00318a"/></g><g transform="translate(118.729)"><path d="M1444.716,181.69h16.623a17.343,17.343,0,0,1-3.216-1.467,17.947,17.947,0,0,1-6.346-6.331,17.258,17.258,0,0,1-1.783-4.213,17.747,17.747,0,0,1,1.783-13.657,17.917,17.917,0,0,1,2.768-3.6,17.258,17.258,0,0,1,3.578-2.766,18.012,18.012,0,0,1,3.5-1.551h-20.412a1.074,1.074,0,0,1,.315.66q.81,8.148,1.655,16.168t1.654,16.168v.115A.982.982,0,0,1,1444.716,181.69Z" transform="translate(-1441.207 -148.106)" fill="#00318a"/></g><g transform="translate(252.08)"><path d="M1640.622,181.609a20.057,20.057,0,0,1-4.791-2.554,12.38,12.38,0,0,1-1.563-1.323q-.636-.651-1.007-1.045l-.069-.069a.133.133,0,0,0-.047-.058.166.166,0,0,1-.046-.035.129.129,0,0,0-.046-.058.158.158,0,0,1-.047-.035,1.623,1.623,0,0,1-.533-.929,1.316,1.316,0,0,1,.533-.883l4-3.819a1.508,1.508,0,0,1,.788-.347.855.855,0,0,1,.439.139,4.251,4.251,0,0,1,.556.416q.394.324,1.006.868a13.442,13.442,0,0,0,1.4,1.077,11.749,11.749,0,0,0,2.337,1.226,6.784,6.784,0,0,0,2.431.44,6.337,6.337,0,0,0,1.979-.266,3.348,3.348,0,0,0,1.261-.705,2.505,2.505,0,0,0,.659-1.018,3.779,3.779,0,0,0,.2-1.226,1.8,1.8,0,0,0-.544-1.283,5.618,5.618,0,0,0-1.331-1.006,11.367,11.367,0,0,0-1.644-.751q-.856-.312-1.481-.521a33.9,33.9,0,0,1-4.861-2.093,14.985,14.985,0,0,1-3.472-2.5,8.994,8.994,0,0,1-2.778-6.719,8.711,8.711,0,0,1,.868-3.909,8.585,8.585,0,0,1,2.477-3.006,11.053,11.053,0,0,1,2.693-1.514H1617.97a17.92,17.92,0,0,1,3.5,1.551,17.563,17.563,0,0,1,6.359,6.366,18.379,18.379,0,0,1,1.783,4.236,17.746,17.746,0,0,1,0,9.421,17.932,17.932,0,0,1-1.783,4.213,17.437,17.437,0,0,1-2.768,3.565,18.106,18.106,0,0,1-3.591,2.766,17.27,17.27,0,0,1-3.222,1.467h22.622C1640.789,181.661,1640.7,181.64,1640.622,181.609Z" transform="translate(-1617.97 -148.106)" fill="#00318a"/></g><g transform="translate(186.814)"><path d="M1545.487,181.69a1.067,1.067,0,0,1-.138-.542V148.812a1.071,1.071,0,0,1,.232-.706h-14.124a10.821,10.821,0,0,1,1.624.533,11.646,11.646,0,0,1,3.635,2.419,11.287,11.287,0,0,1,2.442,3.577,10.813,10.813,0,0,1,.892,4.363,10.369,10.369,0,0,1-.428,3,11.194,11.194,0,0,1-1.192,2.662,11.318,11.318,0,0,1-1.817,2.246,11.9,11.9,0,0,1-2.3,1.725l5.949,11.2c.107.217.247.471.416.764a1.582,1.582,0,0,1,.254.763.822.822,0,0,1-.065.333Z" transform="translate(-1531.457 -148.106)" fill="#00318a"/></g><g transform="translate(307.691)"><path d="M1691.686,148.106a1.132,1.132,0,0,1,.185.66V181.1a1.7,1.7,0,0,1-.088.588h4.388a6.583,6.583,0,0,0,6.583-6.583V154.688a6.583,6.583,0,0,0-6.583-6.582Z" transform="translate(-1691.686 -148.106)" fill="#00318a"/></g><g transform="translate(209.515)"><path d="M1589.735,180.223a17.943,17.943,0,0,1-6.347-6.331,17.261,17.261,0,0,1-1.783-4.213,17.754,17.754,0,0,1,1.783-13.657,17.926,17.926,0,0,1,2.768-3.6,17.278,17.278,0,0,1,3.579-2.766,17.99,17.99,0,0,1,3.494-1.551h-16.6a1.188,1.188,0,0,1,.233.749v5.724a1.206,1.206,0,0,1-.278.75.963.963,0,0,1-.81.358H1561.7v7.176h10.393a1.143,1.143,0,0,1,.741.243.94.94,0,0,1,.3.776v5.532a1.248,1.248,0,0,1-.266.752.86.86,0,0,1-.729.358H1561.7v10.6a1.073,1.073,0,0,1-.149.565h31.4A17.315,17.315,0,0,1,1589.735,180.223Z" transform="translate(-1561.548 -148.106)" fill="#00318a"/></g><g transform="translate(135.849 7.65)"><path d="M1466.362,160.932a8.969,8.969,0,0,0-1.814,2.928,10.237,10.237,0,0,0,0,7.165,8.863,8.863,0,0,0,1.814,2.9,8.458,8.458,0,0,0,2.764,1.945,8.579,8.579,0,0,0,3.513.706,8.668,8.668,0,0,0,3.525-.706,8.428,8.428,0,0,0,2.774-1.945,8.851,8.851,0,0,0,1.814-2.9,10.237,10.237,0,0,0,0-7.165,8.957,8.957,0,0,0-1.814-2.928,8.628,8.628,0,0,0-12.576,0Z" transform="translate(-1463.9 -158.247)" fill="#00318a"/></g><g transform="translate(150.025)"><path d="M1500.666,181.125V148.812a1.146,1.146,0,0,1,.216-.706h-18.191a17.964,17.964,0,0,1,3.5,1.551,17.576,17.576,0,0,1,6.359,6.366,18.372,18.372,0,0,1,1.783,4.236,17.723,17.723,0,0,1,0,9.421,17.925,17.925,0,0,1-1.783,4.213,17.406,17.406,0,0,1-2.769,3.565,18.08,18.08,0,0,1-3.59,2.766,17.292,17.292,0,0,1-3.222,1.467h17.846A1.062,1.062,0,0,1,1500.666,181.125Z" transform="translate(-1482.691 -148.106)" fill="#00318a"/></g><g transform="translate(176.808 22.58)"><path d="M1527.718,188.616l-5.624-10.579h-3.75v10.439a1.073,1.073,0,0,1-.149.565h9.741A1.069,1.069,0,0,1,1527.718,188.616Z" transform="translate(-1518.194 -178.037)" fill="#00318a"/></g><g transform="translate(176.958 6.725)"><path d="M1525.476,157.645a3.8,3.8,0,0,0-1.436-.509c-.432-.031-.837-.058-1.216-.081s-.791-.035-1.239-.035h-3.194v8.495h4.26q.416,0,.741-.023t.717-.069a3.648,3.648,0,0,0,1.459-.475,3.8,3.8,0,0,0,1.088-.948,4.192,4.192,0,0,0,.672-1.273,4.605,4.605,0,0,0,.232-1.447,4.045,4.045,0,0,0-.254-1.388,4.545,4.545,0,0,0-.718-1.273A4.232,4.232,0,0,0,1525.476,157.645Z" transform="translate(-1518.392 -157.02)" fill="#00318a"/></g></g><g transform="translate(0 0)"><path d="M1246,176.5m3.982,11.573a1.312,1.312,0,0,1-.336.556.8.8,0,0,1-.567.324h-6.087a.876.876,0,0,1-.591-.312,1,1,0,0,1-.336-.567L1246,176.5Z" transform="translate(-1226.136 -154.606)" fill="#fca"/><path d="M1236.884,180.948l-5.208-17.962-2.014,17.846q-.046,1.02-1.134,1.018h-6.551a.89.89,0,0,1-1-1.018l3.31-32.336a1.229,1.229,0,0,1,.324-.718,1.022,1.022,0,0,1,.788-.3h8.009a1.078,1.078,0,0,1,1.111.88l6.3,21.018Z" transform="translate(-1220.959 -147.477)" fill="#ff328b"/><path d="M1247.277,169.374l6.342-21.018a1.186,1.186,0,0,1,1.181-.88h7.917a1.123,1.123,0,0,1,.752.29,1.082,1.082,0,0,1,.382.73q.81,8.146,1.655,16.168t1.655,16.168v.115q0,.9-1.018.9h-6.551a.969.969,0,0,1-1.111-1.018l-2.014-17.893-5.208,18.008Z" transform="translate(-1227.417 -147.477)" fill="#0ca"/><path d="M1231.646,162.986l-2.014,17.846q-.047,1.02-1.135,1.018h-6.55a.889.889,0,0,1-.995-1.018l3.309-32.336a1.23,1.23,0,0,1,.324-.718,1.019,1.019,0,0,1,.787-.3C1226.664,147.477,1227.831,149.7,1231.646,162.986Z" transform="translate(-1220.952 -147.477)" fill="url(#a)"/><path d="M1265.7,147.477a1.021,1.021,0,0,1,.788.3,1.229,1.229,0,0,1,.324.718l3.31,32.336a.89.89,0,0,1-1,1.018h-6.55q-1.087,0-1.134-1.018l-2.014-17.846C1263.242,149.7,1264.409,147.477,1265.7,147.477Z" transform="translate(-1230.402 -147.477)" fill="url(#b)"/></g></g></g></svg>