<svg xmlns="http://www.w3.org/2000/svg" xmlns:xlink="http://www.w3.org/1999/xlink" width="1037.816" height="69.031" viewBox="0 0 1037.816 69.031"><defs><clipPath id="a"><path d="M720.6,306.4h42.375v22.158H720.6Z" transform="translate(-720.6 -306.4)" fill="#fff"/></clipPath><clipPath id="b"><path d="M720.6,0h21.192V47.681H720.6Z" transform="translate(-720.6)" fill="#fff"/></clipPath><clipPath id="c"><path d="M975,0h21.192V47.681H975Z" transform="translate(-975)" fill="#fff"/></clipPath><clipPath id="d"><path d="M720.6,470.3h21.192v29.855H720.6Z" transform="translate(-720.6 -470.3)" fill="#fff"/></clipPath><clipPath id="e"><path d="M975,470.3h21.2v29.855H975Z" transform="translate(-975 -470.3)" fill="#fff"/></clipPath><clipPath id="f"><rect width="211.673" height="46.418" transform="translate(0 0)" fill="#fff"/></clipPath></defs><g transform="translate(-1673 -11759.908)"><g transform="translate(1673 11765.908)"><path d="M385.4,324.453h9.629a7.463,7.463,0,0,1,5.393,1.789,4.655,4.655,0,0,1,1.631,3.578h0a5.725,5.725,0,0,1-.158,1.631,6.689,6.689,0,0,1-1.473,2.289,3.53,3.53,0,0,1-.973.658,6.812,6.812,0,0,1,2.946,1.789,4.832,4.832,0,0,1,.973,3.262h0a5.734,5.734,0,0,1-.5,2.447,5.251,5.251,0,0,1-1.631,1.789,14.513,14.513,0,0,1-2.447,1.131,10.92,10.92,0,0,1-3.262.316h-9.971V324.4H385.4Zm8.813,8.471a6.263,6.263,0,0,0,2.447-.5,1.764,1.764,0,0,0,.973-1.631h0a1.958,1.958,0,0,0-.816-1.631,2.832,2.832,0,0,0-2.289-.5h-4.578v4.393h4.236v-.132Zm1.131,8.34a6.263,6.263,0,0,0,2.447-.5,1.533,1.533,0,0,0,.816-1.789h0a1.958,1.958,0,0,0-.816-1.631,5.2,5.2,0,0,0-2.6-.658h-5.393v4.577Z" transform="translate(-326.997 -317.613)" fill="#fff"/><path d="M475.3,324.6h4.578v20.888H475.3Z" transform="translate(-393.247 -317.76)" fill="#fff"/><path d="M519.4,324.6h4.236l9.786,12.891V324.6h4.551v20.888H534.08l-10.286-13.233v13.233H519.4Z" transform="translate(-425.745 -317.76)" fill="#fff"/><path d="M617.671,324h4.235l8.971,21.046h-4.735l-1.947-4.735h-8.813l-1.947,4.735H608.7Zm4.893,12.391-2.762-6.84-2.762,6.84Z" transform="translate(-491.552 -317.318)" fill="#fff"/><path d="M711.6,324.6h4.236l9.786,12.891V324.6H730.2v20.888h-3.92l-10.128-13.233v13.233H711.6Z" transform="translate(-567.382 -317.76)" fill="#fff"/><path d="M815.36,344.92a11.894,11.894,0,0,1-4.236-.816,10.82,10.82,0,0,1-5.709-5.709,12.008,12.008,0,0,1-.815-4.236h0a11.347,11.347,0,0,1,3.1-7.656,10.027,10.027,0,0,1,3.42-2.289,10.485,10.485,0,0,1,4.393-.816,14.434,14.434,0,0,1,2.6.158,7.484,7.484,0,0,1,2.131.658,15.662,15.662,0,0,1,1.789.973,10.22,10.22,0,0,1,1.631,1.315l-2.762,3.42a20.605,20.605,0,0,0-2.447-1.789,5.5,5.5,0,0,0-2.762-.658,6.265,6.265,0,0,0-2.447.5,4.235,4.235,0,0,0-1.947,1.473,10.759,10.759,0,0,0-1.315,2.131,6.778,6.778,0,0,0-.5,2.447h0a7.04,7.04,0,0,0,.5,2.6,6.012,6.012,0,0,0,1.315,2.131,5.741,5.741,0,0,0,4.393,1.947,6.951,6.951,0,0,0,3.1-.658,13.913,13.913,0,0,0,2.447-1.789l2.92,2.92-1.631,1.631a11.582,11.582,0,0,1-1.947,1.131,9.788,9.788,0,0,1-2.289.816,20.691,20.691,0,0,1-2.946.158Z" transform="translate(-635.916 -316.876)" fill="#fff"/><path d="M898.9,324.6h15.653v4.078h-11.26v4.236h9.944v4.078h-9.944v4.42h11.418v4.078H898.9Z" transform="translate(-705.408 -317.76)" fill="#fff"/><path d="M390.309,440.022a7.18,7.18,0,0,1-3.262-.658,9.619,9.619,0,0,1-2.946-1.789l1.631-1.789a10.225,10.225,0,0,0,2.131,1.473,6.775,6.775,0,0,0,2.447.5,4.048,4.048,0,0,0,1.947-.5,1.46,1.46,0,0,0,.658-1.315h0a1.021,1.021,0,0,0-.158-.658c-.158-.158-.316-.5-.5-.658-.316-.158-.658-.316-.973-.5-.5-.158-1.131-.316-1.631-.5a9.452,9.452,0,0,1-2.131-.658,4.442,4.442,0,0,1-1.473-.816,7.2,7.2,0,0,1-.973-1.131,3.96,3.96,0,0,1-.316-1.789h0a7.1,7.1,0,0,1,.316-1.789,4.084,4.084,0,0,1,.973-1.315,5.269,5.269,0,0,1,1.631-.816,8.578,8.578,0,0,1,1.947-.316,9,9,0,0,1,2.946.5,15.876,15.876,0,0,1,2.447,1.315l-1.315,1.947a11.586,11.586,0,0,0-1.947-1.131,4.272,4.272,0,0,0-1.947-.316,3.1,3.1,0,0,0-1.789.5,2.045,2.045,0,0,0-.658,1.315h0a1.512,1.512,0,0,0,.158.816c.158.158.316.5.5.658.316.158.658.316,1.131.5.5.158.973.316,1.789.5a12.771,12.771,0,0,1,2.131.658,6.865,6.865,0,0,1,1.473.816,5.075,5.075,0,0,1,.816,1.131,4.993,4.993,0,0,1,.316,1.631h0a5.88,5.88,0,0,1-.316,1.789,9.2,9.2,0,0,1-1.131,1.473,5.27,5.27,0,0,1-1.631.815C391.782,439.864,390.966,440.022,390.309,440.022Z" transform="translate(-326.039 -391.747)" fill="#fff"/><path d="M438.7,425.7h2.789l4.393,6.84,4.578-6.84h2.762v14.68h-2.6v-10.6l-4.578,6.84h-.158l-4.551-6.84v10.6H438.7Z" transform="translate(-366.275 -392.263)" fill="#fff"/><path d="M509.64,425.1h2.447l6.366,14.68h-2.762l-1.473-3.578h-6.84L505.9,439.78h-2.6Zm3.762,8.971-2.6-5.867-2.447,5.867Z" transform="translate(-413.88 -391.821)" fill="#fff"/><path d="M570.358,425.7h6.524a12.984,12.984,0,0,1,2.447.316,4.157,4.157,0,0,1,1.789,1.131,5.469,5.469,0,0,1,.973,1.473,6.032,6.032,0,0,1,.316,1.789h0a5.965,5.965,0,0,1-.316,1.631c-.158.5-.5.816-.658,1.315a7.2,7.2,0,0,1-1.131.973,6.043,6.043,0,0,1-1.473.658l3.92,5.551h-3.1l-3.578-5.051H572.8v5.051h-2.6Zm6.367,7.182a3,3,0,0,0,2.131-.658,2.572,2.572,0,0,0,.816-1.789h0a2.525,2.525,0,0,0-.816-1.789,3.705,3.705,0,0,0-2.289-.658H572.8v4.893Z" transform="translate(-463.181 -392.263)" fill="#fff"/><path d="M628.835,427.989H624.1V425.7h11.917v2.289h-4.735V440.38h-2.6Z" transform="translate(-502.901 -392.263)" fill="#fff"/><path d="M708.855,439.506a6.385,6.385,0,0,1-2.946-.658,7.161,7.161,0,0,1-3.92-3.92,6.4,6.4,0,0,1-.5-2.946h0a9,9,0,0,1,.5-2.946,7.436,7.436,0,0,1,3.92-4.078,9.73,9.73,0,0,1,3.1-.658,6.2,6.2,0,0,1,1.789.158c.5.158.973.316,1.473.5.5.158.815.5,1.315.658.316.316.815.658,1.131.973l-1.631,1.947a7.489,7.489,0,0,0-1.789-1.315,5.408,5.408,0,0,0-2.289-.5,8.131,8.131,0,0,0-1.947.316,6.018,6.018,0,0,0-1.631,1.131,3.28,3.28,0,0,0-.973,1.631,8.578,8.578,0,0,0-.316,1.947h0a8.132,8.132,0,0,0,.316,1.947,3.616,3.616,0,0,0,.973,1.631,5.487,5.487,0,0,0,1.631,1.131,2.738,2.738,0,0,0,1.947.316,5.04,5.04,0,0,0,2.289-.5,6.919,6.919,0,0,0,1.947-1.473l1.631,1.631-1.131,1.131a5.969,5.969,0,0,1-1.315.816,4.947,4.947,0,0,1-1.631.5,2.454,2.454,0,0,1-1.947.631Z" transform="translate(-559.901 -391.231)" fill="#fff"/><path d="M762.4,425.7h2.447v6.024h7.024V425.7h2.6v14.68h-2.6v-6.209h-7.024v6.209H762.4Z" transform="translate(-604.817 -392.263)" fill="#fff"/><path d="M824.64,425.1h2.447l6.366,14.68h-2.762l-1.473-3.578h-6.84L820.9,439.78h-2.6Zm3.6,8.971L825.8,428.2l-2.447,5.867Z" transform="translate(-646.011 -391.821)" fill="#fff"/><path d="M885.8,425.7h2.631v14.68H885.8Z" transform="translate(-695.754 -392.263)" fill="#fff"/><path d="M910.6,425.7h2.289l7.84,10.1V425.7h2.6v14.68H921.2l-7.971-10.444V440.38H910.6Z" transform="translate(-714.03 -392.263)" fill="#fff"/><path d="M193.1,345.743v6.366l-5.551,3.262-5.393-3.262v-6.366l5.393,3.262Zm-29.7-22.02,5.393,3.262V337.9l9.287,5.551v6.366l-14.68-8.655Zm48.3,0v17.468l-14.837,8.655v-6.366l9.287-5.551V327.012Zm-14.864-8.655,5.551,3.262h0V324.7l-9.287,5.551v11.076l-5.393,3.262-5.367-3.262v-11.1l-9.629-5.551V318.3l5.551-3.262,9.287,5.551Zm-24.124,14.18,5.393,3.262v6.366l-5.393-3.262Zm29.675,0v6.366l-5.393,3.262V332.51Zm-33.595-19.731,5.551,3.262-5.551,3.262v6.366l-5.393-3.262V312.78Zm37.515,0,5.551,3.262v6.366l-5.551,3.262v-6.366l-5.393-3.262Zm-18.757,0,5.551,3.262-5.551,3.262-5.393-3.262Zm0-10.918,14.837,8.655-5.393,3.262-9.287-5.551-9.471,5.551-5.393-3.262Z" transform="translate(-163.4 -298.6)" fill="#fff"/></g><g transform="translate(1953 11759.908)"><path d="M14.561,1019.417a.658.658,0,0,1-.658.65H1.224c.317,3.132,2.674,5.989,5.989,5.989a5.932,5.932,0,0,0,5.215-2.674.636.636,0,0,1,.808-.258.61.61,0,0,1,.358.458.64.64,0,0,1-.083.442,7.151,7.151,0,0,1-6.306,3.315c-4.265,0-7.305-3.815-7.305-7.9s3.04-7.9,7.305-7.9,7.347,3.8,7.355,7.872M13.2,1018.8c-.275-3.132-2.674-5.989-5.989-5.989s-5.673,2.857-5.989,5.989Zm16.743-6.947a.643.643,0,0,1,.633.633.617.617,0,0,1-.633.633h-3.4v13.337a.633.633,0,0,1-1.266,0V1013.12H22.016a.617.617,0,0,1-.633-.633.649.649,0,0,1,.633-.633h3.265v-4.881a.638.638,0,0,1,.508-.641.628.628,0,0,1,.758.625v4.9ZM50.68,1018.3v8.08a.643.643,0,0,1-.633.633.617.617,0,0,1-.633-.633v-8.08c0-2.724-1.541-5.448-4.582-5.448-3.9,0-5.581,3.407-5.356,6.9,0,.092.042.5.042.542v6.064a.638.638,0,0,1-.508.641.628.628,0,0,1-.758-.625v-26.54a.633.633,0,1,1,1.266,0v15.019a6.113,6.113,0,0,1,5.306-3.265c3.724,0,5.856,3.265,5.856,6.714m22.733,1.116a.658.658,0,0,1-.658.65H60.068c.317,3.132,2.674,5.989,5.989,5.989a5.932,5.932,0,0,0,5.215-2.674.636.636,0,0,1,.808-.258.61.61,0,0,1,.358.458.64.64,0,0,1-.083.442,7.151,7.151,0,0,1-6.306,3.315c-4.265,0-7.305-3.815-7.305-7.9s3.04-7.9,7.305-7.9,7.355,3.8,7.364,7.872m-1.366-.616c-.275-3.132-2.674-5.989-5.989-5.989s-5.673,2.857-5.989,5.989Zm16.927-6.356a.628.628,0,0,1-.591.683c-3.724.542-5.4,3.582-5.4,7.122v6.064a.638.638,0,0,1-.508.641.628.628,0,0,1-.758-.625v-13.82a.639.639,0,0,1,.508-.641.628.628,0,0,1,.758.625v2.816c1.041-1.766,3.132-3.449,5.306-3.449a.646.646,0,0,1,.683.583m20.825,6.972a.658.658,0,0,1-.658.65H96.462c.317,3.132,2.674,5.989,5.989,5.989a5.932,5.932,0,0,0,5.215-2.674.636.636,0,0,1,.808-.258.61.61,0,0,1,.358.458.64.64,0,0,1-.083.442,7.151,7.151,0,0,1-6.306,3.315c-4.265,0-7.305-3.815-7.305-7.9s3.04-7.9,7.305-7.9,7.347,3.8,7.355,7.872m-1.358-.616c-.275-3.132-2.674-5.989-5.989-5.989s-5.673,2.857-5.989,5.989Zm21.825-6.2v13.853a.643.643,0,0,1-.633.633.617.617,0,0,1-.633-.633v-2.632a5.936,5.936,0,0,1-5.265,3.582c-3.765,0-5.856-3.265-5.856-6.714v-8.122a.633.633,0,0,1,1.266,0v8.122c0,2.724,1.541,5.448,4.582,5.448,4.265,0,5.265-3.99,5.265-8.4v-5.173a.641.641,0,0,1,.816-.608.681.681,0,0,1,.458.641m32.071,5.648v8.122a.643.643,0,0,1-.633.633.617.617,0,0,1-.633-.633v-8.122c0-2.724-1.541-5.4-4.582-5.4-3.815,0-5.265,4.082-5.265,7.255v6.264a.643.643,0,0,1-.633.633.617.617,0,0,1-.633-.633v-8.122c0-2.724-1.541-5.4-4.582-5.4-3.857,0-5.448,3.041-5.306,7.081,0,.092.042.275,0,.317v6.106a.638.638,0,0,1-.516.641.628.628,0,0,1-.758-.625v-13.861a.639.639,0,0,1,.508-.641.628.628,0,0,1,.758.625v2.316a6.073,6.073,0,0,1,5.306-3.224,5.635,5.635,0,0,1,5.4,4.04,6.275,6.275,0,0,1,5.714-4.04c3.724,0,5.856,3.215,5.856,6.664" transform="translate(49.689 -982.647)" fill="#fff"/><g transform="translate(0 25.523)"><g clip-path="url(#a)"><path d="M741.792,306.4,720.6,316.038l21.192,12.52,21.183-12.52Z" transform="translate(-720.6 -306.4)" fill="#fff"/></g></g><g transform="translate(0)"><g clip-path="url(#b)"><path d="M720.6,35.161l21.192,12.52V0Z" transform="translate(-720.6)" fill="#fff"/></g></g><g transform="translate(21.192)"><g clip-path="url(#c)"><path d="M975,0V47.681l21.183-12.52Z" transform="translate(-975)" fill="#fff"/></g></g><g transform="translate(0 39.176)"><g clip-path="url(#d)"><path d="M720.6,470.3l21.192,29.855V482.82Z" transform="translate(-720.6 -470.3)" fill="#fff"/></g></g><g transform="translate(21.192 39.176)"><g clip-path="url(#e)"><path d="M975,482.82v17.335L996.2,470.3Z" transform="translate(-975 -470.3)" fill="#fff"/></g></g></g><g transform="translate(2236 11770.908)" clip-path="url(#f)"><path d="M334.666,66.775a7.782,7.782,0,0,1,3.1,3.335,10.825,10.825,0,0,1,1.2,5.2,9.482,9.482,0,0,1-1.3,5.1,7.4,7.4,0,0,1-3.495,3.237,11.221,11.221,0,0,1-5.192,1.177,8.267,8.267,0,0,1-3.1-.588,6.339,6.339,0,0,1-2.6-1.569v10.2h-5.791V65.99h4.992l.5,2.158a11.173,11.173,0,0,1,7.089-2.648A8.086,8.086,0,0,1,334.666,66.775Zm-3.2,12.162a4.48,4.48,0,0,0,1.5-3.531,5.155,5.155,0,0,0-1.4-3.629,4.42,4.42,0,0,0-3.395-1.373,5.5,5.5,0,0,0-2.9.687,4.561,4.561,0,0,0-1.9,1.962v4.414a4.177,4.177,0,0,0,1.6,2.06,5.178,5.178,0,0,0,2.8.785A5.355,5.355,0,0,0,331.471,78.937Z" transform="translate(-251.869 -51.974)" fill="#fff"/><path d="M432.835,70.574a9.289,9.289,0,0,1,3.694-3.335,12.113,12.113,0,0,1,5.392-1.275,10.932,10.932,0,0,1,5.392,1.275,9.216,9.216,0,0,1,3.595,3.433,9.913,9.913,0,0,1,0,9.808,8.594,8.594,0,0,1-3.595,3.433,11.794,11.794,0,0,1-5.392,1.275,12.067,12.067,0,0,1-5.392-1.177,8.625,8.625,0,0,1-3.694-3.335,10.476,10.476,0,0,1,0-10.1Zm5.891,8.533a3.876,3.876,0,0,0,3.2,1.373,4.186,4.186,0,0,0,3.2-1.373,5.233,5.233,0,0,0,1.2-3.531,5.062,5.062,0,0,0-1.2-3.531,4.155,4.155,0,0,0-3.295-1.471,4.343,4.343,0,0,0-3.2,1.373,5.5,5.5,0,0,0-1.2,3.629A5,5,0,0,0,438.726,79.107Z" transform="translate(-342.35 -52.343)" fill="#fff"/><path d="M554.762.464V32.732h-5.791V.464Z" transform="translate(-435.52 -0.376)" fill="#fff"/><path d="M609.961,70.241,598.179,96.722h-5.591l4.393-9.514-8.387-16.968h6.59l4.793,10.592,4.793-10.592Z" transform="translate(-466.956 -55.735)" fill="#fff"/><path d="M714.937,66.847V84.7a7.72,7.72,0,0,1-1.5,4.61,9.977,9.977,0,0,1-3.994,3.237,12.821,12.821,0,0,1-5.492,1.177,15.016,15.016,0,0,1-3.894-.49,17.943,17.943,0,0,1-2.7-1.177,18.367,18.367,0,0,1-2.5-1.863l3.395-3.923a9.757,9.757,0,0,0,2.5,1.766,7.191,7.191,0,0,0,3.1.686,6.311,6.311,0,0,0,3.694-1.079,3.529,3.529,0,0,0,1.5-3.04V82.05a6.506,6.506,0,0,1-2.6,2.256,9.4,9.4,0,0,1-4.193.883,8.548,8.548,0,0,1-4.593-1.275,9.429,9.429,0,0,1-3.395-3.433,9.9,9.9,0,0,1-1.3-4.806,9.264,9.264,0,0,1,1.3-4.9,9.953,9.953,0,0,1,3.495-3.531,8.215,8.215,0,0,1,4.493-1.275,12.639,12.639,0,0,1,3.994.588,5.988,5.988,0,0,1,2.7,1.667l.6-1.373Zm-5.891,10.985V73.419a4.247,4.247,0,0,0-1.9-2.06,6.285,6.285,0,0,0-3.1-.785,5.284,5.284,0,0,0-3.594,1.373,4.48,4.48,0,0,0-1.5,3.531,5.069,5.069,0,0,0,5.092,5.1A5.569,5.569,0,0,0,709.046,77.832Z" transform="translate(-549.767 -52.343)" fill="#fff"/><path d="M817.5,70.208a9.517,9.517,0,0,1,3.694-3.433,12.113,12.113,0,0,1,5.392-1.275,10.932,10.932,0,0,1,5.392,1.275,9.217,9.217,0,0,1,3.595,3.433,9.988,9.988,0,0,1,1.3,4.9,9.03,9.03,0,0,1-1.3,4.9,8.05,8.05,0,0,1-3.595,3.433,11.792,11.792,0,0,1-5.392,1.275,12.071,12.071,0,0,1-5.392-1.177,8.627,8.627,0,0,1-3.694-3.335,9.6,9.6,0,0,1-1.3-5.2A9.164,9.164,0,0,1,817.5,70.208Zm5.791,8.533a3.876,3.876,0,0,0,3.2,1.373,4.185,4.185,0,0,0,3.2-1.373,5.233,5.233,0,0,0,1.2-3.531,5.062,5.062,0,0,0-1.2-3.531,4.186,4.186,0,0,0-3.2-1.373,4.343,4.343,0,0,0-3.2,1.373A4.844,4.844,0,0,0,822,75.21,6.106,6.106,0,0,0,823.3,78.741Z" transform="translate(-647.54 -51.974)" fill="#fff"/><path d="M950.125,67.436a5.015,5.015,0,0,1,1.8,3.825V84.7h-5.891V73.419a2.446,2.446,0,0,0-2.7-2.648,3.619,3.619,0,0,0-3.195,1.863,8.7,8.7,0,0,0-1.2,4.708V84.7h-5.791V66.847h5.292l.4,2.844a7.448,7.448,0,0,1,2.8-2.746,8.272,8.272,0,0,1,4.194-.981A6.316,6.316,0,0,1,950.125,67.436Z" transform="translate(-740.322 -52.343)" fill="#fff"/><path d="M40.838,14.4a3.483,3.483,0,0,0-3.395,0l-7.788,4.512-5.292,2.942L16.575,26.37a3.483,3.483,0,0,1-3.395,0L6.989,22.839a3.372,3.372,0,0,1-1.7-2.844V13.031a3.171,3.171,0,0,1,1.7-2.844L13.08,6.754a3.483,3.483,0,0,1,3.395,0l6.091,3.433a3.373,3.373,0,0,1,1.7,2.844v4.512l5.292-3.04V9.991a3.171,3.171,0,0,0-1.7-2.844L16.575.673a3.483,3.483,0,0,0-3.395,0L1.7,7.146A3.171,3.171,0,0,0,0,9.991V23.035a3.171,3.171,0,0,0,1.7,2.844L13.18,32.353a3.483,3.483,0,0,0,3.395,0l7.788-4.414,5.292-3.04,7.788-4.414a3.483,3.483,0,0,1,3.395,0l6.091,3.433a3.373,3.373,0,0,1,1.7,2.844v6.963a3.171,3.171,0,0,1-1.7,2.844L40.838,40.1a3.483,3.483,0,0,1-3.395,0l-6.091-3.433a3.373,3.373,0,0,1-1.7-2.844V29.312l-5.292,3.04v4.512a3.171,3.171,0,0,0,1.7,2.844l11.483,6.473a3.483,3.483,0,0,0,3.395,0L52.42,39.708a3.373,3.373,0,0,0,1.7-2.844V23.82a3.171,3.171,0,0,0-1.7-2.844Z" transform="translate(0.024 -0.192)" fill="#fff"/></g><g transform="translate(2519 11776.908)"><path d="M1019.372,791.333h7.229a1.849,1.849,0,0,1,0,3.7h-8.719a.549.549,0,0,0-.368.14l-2.629,2.27a.573.573,0,0,0,.368,1.008h10.909a.009.009,0,0,0,.009-.009.008.008,0,0,1,.009-.009c.14.009.272.018.421.018a5.268,5.268,0,0,0,.429-10.515.009.009,0,0,1-.009-.009c0-.009,0-.009-.009-.009h-7.781a1.849,1.849,0,0,1,0-3.7h8.7a.574.574,0,0,0,.386-.149l2.445-2.269a.576.576,0,0,0-.385-1H1019.24a5.266,5.266,0,0,0,0,10.533Z" transform="translate(-954.403 -771.705)" fill="#fff"/><path d="M1549.67,780.7a.57.57,0,0,0-.57.578v16.509a.576.576,0,0,0,.57.578H1562.9a.6.6,0,0,0,.421-.184l1.656-1.779a.572.572,0,0,0-.421-.964h-11.549a.57.57,0,0,1-.57-.578V781.278a.576.576,0,0,0-.57-.578Z" transform="translate(-1442.614 -771.613)" fill="#fff"/><path d="M1281.228,780.7h0c0,.009-.009.009,0,0a3.289,3.289,0,0,0-3.128,3.128h0v11.1h0v.14a3.264,3.264,0,0,0,3.128,3.268h12a3.282,3.282,0,0,0,3.128-3.268v-.14h0V783.837h0a3.268,3.268,0,0,0-3.12-3.128h-12.014Zm2.234,3.137h0a2.05,2.05,0,0,0-1.954,1.972h0v6.984h0v.088a2.054,2.054,0,0,0,1.954,2.059h7.527a2.054,2.054,0,0,0,1.954-2.059v-.088h0v-6.984h0a2.056,2.056,0,0,0-1.954-1.972h-7.527Z" transform="translate(-1195.361 -771.613)" fill="#fff" fill-rule="evenodd"/><path d="M1797.707,797.97a.576.576,0,0,0,.57.578h2.243a.57.57,0,0,0,.57-.578V784.309h0v-.14A3.253,3.253,0,0,0,1798,780.9h-11.663a3.252,3.252,0,0,0-3.233,3.277v.14h0v13.661a.576.576,0,0,0,.57.578h2.243a.57.57,0,0,0,.57-.578v-5.687a.576.576,0,0,1,.57-.578h10.112a.57.57,0,0,1,.569.578v5.678Zm-11.251-9.4v-2.839a1.986,1.986,0,0,1,1.972-2h7.308a1.986,1.986,0,0,1,1.972,2v2.839a.576.576,0,0,1-.569.578h-10.112A.57.57,0,0,1,1786.456,788.567Z" transform="translate(-1656.11 -771.796)" fill="#fff" fill-rule="evenodd"/><path d="M2330.635,798.457a.57.57,0,0,1-.57-.578v-5.687a.576.576,0,0,0-.569-.578H2319.27a.57.57,0,0,0-.57.578v5.687a.576.576,0,0,1-.57.578h-2.261a.57.57,0,0,1-.57-.578V784.217h0v-.14a3.276,3.276,0,0,1,3.269-3.277h11.794a3.282,3.282,0,0,1,3.128,3.268v.14h0V797.87a.576.576,0,0,1-.569.578h-2.287Zm-11.944-12.82v2.839a.576.576,0,0,0,.57.578h10.226a.571.571,0,0,0,.57-.578v-2.839a2,2,0,0,0-1.989-2h-7.387A2,2,0,0,0,2318.691,785.637Z" transform="translate(-2141.675 -771.704)" fill="#fff" fill-rule="evenodd"/><path d="M2051.946,780.7a.544.544,0,0,1,.429.2l10.06,12a.568.568,0,0,0,1-.377V781.278a.576.576,0,0,1,.57-.578h2.243a.57.57,0,0,1,.57.578v16.509a.576.576,0,0,1-.57.578h-2.786a.019.019,0,0,1-.017-.017c0-.009,0-.009-.009-.018L2053.2,786.422a.57.57,0,0,0-1,.377v11a.576.576,0,0,1-.57.578h-2.261a.57.57,0,0,1-.57-.578V781.278a.576.576,0,0,1,.57-.578Z" transform="translate(-1898.527 -771.613)" fill="#fff"/><path d="M341.29,984.638a1.486,1.486,0,0,1,1.051-.438h36.5a.743.743,0,0,1,.526,1.271l-7.212,7.2a1.487,1.487,0,0,1-1.052.438H334.613a.743.743,0,0,1-.526-1.271Z" transform="translate(-333.865 -957.281)" fill="#fff"/><path d="M341.29,677.438a1.486,1.486,0,0,1,1.051-.438h36.5a.743.743,0,0,1,.526,1.271l-7.212,7.2a1.486,1.486,0,0,1-1.052.438H334.613a.743.743,0,0,1-.526-1.271Z" transform="translate(-333.865 -677)" fill="#fff"/><path d="M372.152,830.038a1.486,1.486,0,0,0-1.052-.438H334.613a.743.743,0,0,0-.526,1.271l7.212,7.2a1.486,1.486,0,0,0,1.051.438h36.5a.743.743,0,0,0,.526-1.271Z" transform="translate(-333.865 -816.228)" fill="#fff"/></g></g></svg>