<svg xmlns="http://www.w3.org/2000/svg" xmlns:xlink="http://www.w3.org/1999/xlink" width="1973.045" height="1072" viewBox="0 0 1973.045 1072"><defs><linearGradient id="a" x1="0.5" y1="0.198" x2="0.5" y2="1" gradientUnits="objectBoundingBox"><stop offset="0" stop-color="#bcd6d8"/><stop offset="1" stop-color="#bcd6d8" stop-opacity="0"/></linearGradient><clipPath id="b"><rect width="1973" height="254" transform="translate(0.045)" fill="#bcd6d8"/></clipPath><clipPath id="c"><rect width="2298" height="125" fill="none"/></clipPath><clipPath id="e"><rect width="2274" height="125" fill="none"/></clipPath><clipPath id="f"><rect width="2398" height="125" fill="none"/></clipPath></defs><g transform="translate(1925.045 2852) rotate(180)"><path d="M0,0H1973.045V820H0Z" transform="translate(-48 2032)" fill="url(#a)"/><g transform="translate(-48 1780)" clip-path="url(#b)"><g transform="translate(-93.862 17)"><g transform="translate(-0.092 124)" clip-path="url(#c)"><g transform="translate(-500 -2041)"><path d="M47.616,0a11,11,0,0,1,9.551,5.542l11.714,20.5a11,11,0,0,1,0,10.915l-11.714,20.5A11,11,0,0,1,47.616,63H24.384a11,11,0,0,1-9.551-5.542L3.119,36.958a11,11,0,0,1,0-10.915l11.714-20.5A11,11,0,0,1,24.384,0Z" transform="translate(536 2072)" fill="#bcd6d8"/></g><g transform="translate(-336 -2041)"><path d="M47.616,0a11,11,0,0,1,9.551,5.542l11.714,20.5a11,11,0,0,1,0,10.915l-11.714,20.5A11,11,0,0,1,47.616,63H24.384a11,11,0,0,1-9.551-5.542L3.119,36.958a11,11,0,0,1,0-10.915l11.714-20.5A11,11,0,0,1,24.384,0Z" transform="translate(536 2072)" fill="#bcd6d8"/></g><g transform="translate(-172 -2041)"><path d="M47.616,0a11,11,0,0,1,9.551,5.542l11.714,20.5a11,11,0,0,1,0,10.915l-11.714,20.5A11,11,0,0,1,47.616,63H24.384a11,11,0,0,1-9.551-5.542L3.119,36.958a11,11,0,0,1,0-10.915l11.714-20.5A11,11,0,0,1,24.384,0Z" transform="translate(536 2072)" fill="#bcd6d8"/></g><g transform="translate(-8 -2041)"><path d="M47.616,0a11,11,0,0,1,9.551,5.542l11.714,20.5a11,11,0,0,1,0,10.915l-11.714,20.5A11,11,0,0,1,47.616,63H24.384a11,11,0,0,1-9.551-5.542L3.119,36.958a11,11,0,0,1,0-10.915l11.714-20.5A11,11,0,0,1,24.384,0Z" transform="translate(536 2072)" fill="#bcd6d8"/></g><g transform="translate(156 -2041)"><path d="M47.616,0a11,11,0,0,1,9.551,5.542l11.714,20.5a11,11,0,0,1,0,10.915l-11.714,20.5A11,11,0,0,1,47.616,63H24.384a11,11,0,0,1-9.551-5.542L3.119,36.958a11,11,0,0,1,0-10.915l11.714-20.5A11,11,0,0,1,24.384,0Z" transform="translate(536 2072)" fill="#bcd6d8"/></g><g transform="translate(320 -2041)"><path d="M47.616,0a11,11,0,0,1,9.551,5.542l11.714,20.5a11,11,0,0,1,0,10.915l-11.714,20.5A11,11,0,0,1,47.616,63H24.384a11,11,0,0,1-9.551-5.542L3.119,36.958a11,11,0,0,1,0-10.915l11.714-20.5A11,11,0,0,1,24.384,0Z" transform="translate(536 2072)" fill="#bcd6d8"/></g><g transform="translate(484 -2041)"><path d="M47.616,0a11,11,0,0,1,9.551,5.542l11.714,20.5a11,11,0,0,1,0,10.915l-11.714,20.5A11,11,0,0,1,47.616,63H24.384a11,11,0,0,1-9.551-5.542L3.119,36.958a11,11,0,0,1,0-10.915l11.714-20.5A11,11,0,0,1,24.384,0Z" transform="translate(536 2072)" fill="#bcd6d8"/></g><g transform="translate(648 -2041)"><path d="M47.616,0a11,11,0,0,1,9.551,5.542l11.714,20.5a11,11,0,0,1,0,10.915l-11.714,20.5A11,11,0,0,1,47.616,63H24.384a11,11,0,0,1-9.551-5.542L3.119,36.958a11,11,0,0,1,0-10.915l11.714-20.5A11,11,0,0,1,24.384,0Z" transform="translate(536 2072)" fill="#bcd6d8"/></g><g transform="translate(812 -2041)"><path d="M47.616,0a11,11,0,0,1,9.551,5.542l11.714,20.5a11,11,0,0,1,0,10.915l-11.714,20.5A11,11,0,0,1,47.616,63H24.384a11,11,0,0,1-9.551-5.542L3.119,36.958a11,11,0,0,1,0-10.915l11.714-20.5A11,11,0,0,1,24.384,0Z" transform="translate(536 2072)" fill="#bcd6d8"/></g><g transform="translate(976 -2041)"><path d="M47.616,0a11,11,0,0,1,9.551,5.542l11.714,20.5a11,11,0,0,1,0,10.915l-11.714,20.5A11,11,0,0,1,47.616,63H24.384a11,11,0,0,1-9.551-5.542L3.119,36.958a11,11,0,0,1,0-10.915l11.714-20.5A11,11,0,0,1,24.384,0Z" transform="translate(536 2072)" fill="#bcd6d8"/></g><g transform="translate(1140 -2041)"><path d="M47.616,0a11,11,0,0,1,9.551,5.542l11.714,20.5a11,11,0,0,1,0,10.915l-11.714,20.5A11,11,0,0,1,47.616,63H24.384a11,11,0,0,1-9.551-5.542L3.119,36.958a11,11,0,0,1,0-10.915l11.714-20.5A11,11,0,0,1,24.384,0Z" transform="translate(536 2072)" fill="#bcd6d8"/></g><g transform="translate(1304 -2041)"><path d="M47.616,0a11,11,0,0,1,9.551,5.542l11.714,20.5a11,11,0,0,1,0,10.915l-11.714,20.5A11,11,0,0,1,47.616,63H24.384a11,11,0,0,1-9.551-5.542L3.119,36.958a11,11,0,0,1,0-10.915l11.714-20.5A11,11,0,0,1,24.384,0Z" transform="translate(536 2072)" fill="#bcd6d8"/></g><g transform="translate(1468 -2041)"><path d="M47.616,0a11,11,0,0,1,9.551,5.542l11.714,20.5a11,11,0,0,1,0,10.915l-11.714,20.5A11,11,0,0,1,47.616,63H24.384a11,11,0,0,1-9.551-5.542L3.119,36.958a11,11,0,0,1,0-10.915l11.714-20.5A11,11,0,0,1,24.384,0Z" transform="translate(536 2072)" fill="#bcd6d8"/></g><g transform="translate(1632 -2041)"><path d="M47.616,0a11,11,0,0,1,9.551,5.542l11.714,20.5a11,11,0,0,1,0,10.915l-11.714,20.5A11,11,0,0,1,47.616,63H24.384a11,11,0,0,1-9.551-5.542L3.119,36.958a11,11,0,0,1,0-10.915l11.714-20.5A11,11,0,0,1,24.384,0Z" transform="translate(536 2072)" fill="#bcd6d8"/></g><g transform="translate(1796 -2041)"><path d="M47.616,0a11,11,0,0,1,9.551,5.542l11.714,20.5a11,11,0,0,1,0,10.915l-11.714,20.5A11,11,0,0,1,47.616,63H24.384a11,11,0,0,1-9.551-5.542L3.119,36.958a11,11,0,0,1,0-10.915l11.714-20.5A11,11,0,0,1,24.384,0Z" transform="translate(536 2072)" fill="#bcd6d8"/></g></g><g transform="translate(-0.092)" clip-path="url(#c)"><g transform="translate(-500 -2041)"><path d="M15.679,0a4,4,0,0,1,3.473,2.015l3.714,6.5a4,4,0,0,1,0,3.969l-3.714,6.5A4,4,0,0,1,15.679,21H8.321a4,4,0,0,1-3.473-2.015l-3.714-6.5a4,4,0,0,1,0-3.969l3.714-6.5A4,4,0,0,1,8.321,0Z" transform="translate(560 2093)" fill="#bcd6d8"/></g><g transform="translate(-336 -2041)"><path d="M15.679,0a4,4,0,0,1,3.473,2.015l3.714,6.5a4,4,0,0,1,0,3.969l-3.714,6.5A4,4,0,0,1,15.679,21H8.321a4,4,0,0,1-3.473-2.015l-3.714-6.5a4,4,0,0,1,0-3.969l3.714-6.5A4,4,0,0,1,8.321,0Z" transform="translate(560 2093)" fill="#bcd6d8"/></g><g transform="translate(-172 -2041)"><path d="M15.679,0a4,4,0,0,1,3.473,2.015l3.714,6.5a4,4,0,0,1,0,3.969l-3.714,6.5A4,4,0,0,1,15.679,21H8.321a4,4,0,0,1-3.473-2.015l-3.714-6.5a4,4,0,0,1,0-3.969l3.714-6.5A4,4,0,0,1,8.321,0Z" transform="translate(560 2093)" fill="#bcd6d8"/></g><g transform="translate(-8 -2041)"><path d="M15.679,0a4,4,0,0,1,3.473,2.015l3.714,6.5a4,4,0,0,1,0,3.969l-3.714,6.5A4,4,0,0,1,15.679,21H8.321a4,4,0,0,1-3.473-2.015l-3.714-6.5a4,4,0,0,1,0-3.969l3.714-6.5A4,4,0,0,1,8.321,0Z" transform="translate(560 2093)" fill="#bcd6d8"/></g><g transform="translate(156 -2041)"><path d="M15.679,0a4,4,0,0,1,3.473,2.015l3.714,6.5a4,4,0,0,1,0,3.969l-3.714,6.5A4,4,0,0,1,15.679,21H8.321a4,4,0,0,1-3.473-2.015l-3.714-6.5a4,4,0,0,1,0-3.969l3.714-6.5A4,4,0,0,1,8.321,0Z" transform="translate(560 2093)" fill="#bcd6d8"/></g><g transform="translate(320 -2041)"><path d="M15.679,0a4,4,0,0,1,3.473,2.015l3.714,6.5a4,4,0,0,1,0,3.969l-3.714,6.5A4,4,0,0,1,15.679,21H8.321a4,4,0,0,1-3.473-2.015l-3.714-6.5a4,4,0,0,1,0-3.969l3.714-6.5A4,4,0,0,1,8.321,0Z" transform="translate(560 2093)" fill="#bcd6d8"/></g><g transform="translate(484 -2041)"><path d="M15.679,0a4,4,0,0,1,3.473,2.015l3.714,6.5a4,4,0,0,1,0,3.969l-3.714,6.5A4,4,0,0,1,15.679,21H8.321a4,4,0,0,1-3.473-2.015l-3.714-6.5a4,4,0,0,1,0-3.969l3.714-6.5A4,4,0,0,1,8.321,0Z" transform="translate(560 2093)" fill="#bcd6d8"/></g><g transform="translate(648 -2041)"><path d="M15.679,0a4,4,0,0,1,3.473,2.015l3.714,6.5a4,4,0,0,1,0,3.969l-3.714,6.5A4,4,0,0,1,15.679,21H8.321a4,4,0,0,1-3.473-2.015l-3.714-6.5a4,4,0,0,1,0-3.969l3.714-6.5A4,4,0,0,1,8.321,0Z" transform="translate(560 2093)" fill="#bcd6d8"/></g><g transform="translate(812 -2041)"><path d="M15.679,0a4,4,0,0,1,3.473,2.015l3.714,6.5a4,4,0,0,1,0,3.969l-3.714,6.5A4,4,0,0,1,15.679,21H8.321a4,4,0,0,1-3.473-2.015l-3.714-6.5a4,4,0,0,1,0-3.969l3.714-6.5A4,4,0,0,1,8.321,0Z" transform="translate(560 2093)" fill="#bcd6d8"/></g><g transform="translate(976 -2041)"><path d="M15.679,0a4,4,0,0,1,3.473,2.015l3.714,6.5a4,4,0,0,1,0,3.969l-3.714,6.5A4,4,0,0,1,15.679,21H8.321a4,4,0,0,1-3.473-2.015l-3.714-6.5a4,4,0,0,1,0-3.969l3.714-6.5A4,4,0,0,1,8.321,0Z" transform="translate(560 2093)" fill="#bcd6d8"/></g><g transform="translate(1140 -2041)"><path d="M15.679,0a4,4,0,0,1,3.473,2.015l3.714,6.5a4,4,0,0,1,0,3.969l-3.714,6.5A4,4,0,0,1,15.679,21H8.321a4,4,0,0,1-3.473-2.015l-3.714-6.5a4,4,0,0,1,0-3.969l3.714-6.5A4,4,0,0,1,8.321,0Z" transform="translate(560 2093)" fill="#bcd6d8"/></g><g transform="translate(1304 -2041)"><path d="M15.679,0a4,4,0,0,1,3.473,2.015l3.714,6.5a4,4,0,0,1,0,3.969l-3.714,6.5A4,4,0,0,1,15.679,21H8.321a4,4,0,0,1-3.473-2.015l-3.714-6.5a4,4,0,0,1,0-3.969l3.714-6.5A4,4,0,0,1,8.321,0Z" transform="translate(560 2093)" fill="#bcd6d8"/></g><g transform="translate(1468 -2041)"><path d="M15.679,0a4,4,0,0,1,3.473,2.015l3.714,6.5a4,4,0,0,1,0,3.969l-3.714,6.5A4,4,0,0,1,15.679,21H8.321a4,4,0,0,1-3.473-2.015l-3.714-6.5a4,4,0,0,1,0-3.969l3.714-6.5A4,4,0,0,1,8.321,0Z" transform="translate(560 2093)" fill="#bcd6d8"/></g><g transform="translate(1632 -2041)"><path d="M15.679,0a4,4,0,0,1,3.473,2.015l3.714,6.5a4,4,0,0,1,0,3.969l-3.714,6.5A4,4,0,0,1,15.679,21H8.321a4,4,0,0,1-3.473-2.015l-3.714-6.5a4,4,0,0,1,0-3.969l3.714-6.5A4,4,0,0,1,8.321,0Z" transform="translate(560 2093)" fill="#bcd6d8"/></g><g transform="translate(1796 -2041)"><path d="M15.679,0a4,4,0,0,1,3.473,2.015l3.714,6.5a4,4,0,0,1,0,3.969l-3.714,6.5A4,4,0,0,1,15.679,21H8.321a4,4,0,0,1-3.473-2.015l-3.714-6.5a4,4,0,0,1,0-3.969l3.714-6.5A4,4,0,0,1,8.321,0Z" transform="translate(560 2093)" fill="#bcd6d8"/></g></g><g transform="translate(77.908 83)" clip-path="url(#e)"><g transform="translate(-500 -2041)"><path d="M34.873,0A7,7,0,0,1,41,3.612l9.128,16.5a7,7,0,0,1,0,6.777L41,43.388A7,7,0,0,1,34.873,47H17.127A7,7,0,0,1,11,43.388l-9.128-16.5a7,7,0,0,1,0-6.777L11,3.612A7,7,0,0,1,17.127,0Z" transform="translate(546 2064)" fill="#bcd6d8"/></g><g transform="translate(-336 -2041)"><path d="M34.873,0A7,7,0,0,1,41,3.612l9.128,16.5a7,7,0,0,1,0,6.777L41,43.388A7,7,0,0,1,34.873,47H17.127A7,7,0,0,1,11,43.388l-9.128-16.5a7,7,0,0,1,0-6.777L11,3.612A7,7,0,0,1,17.127,0Z" transform="translate(546 2064)" fill="#bcd6d8"/></g><g transform="translate(-172 -2041)"><path d="M34.873,0A7,7,0,0,1,41,3.612l9.128,16.5a7,7,0,0,1,0,6.777L41,43.388A7,7,0,0,1,34.873,47H17.127A7,7,0,0,1,11,43.388l-9.128-16.5a7,7,0,0,1,0-6.777L11,3.612A7,7,0,0,1,17.127,0Z" transform="translate(546 2064)" fill="#bcd6d8"/></g><g transform="translate(-8 -2041)"><path d="M34.873,0A7,7,0,0,1,41,3.612l9.128,16.5a7,7,0,0,1,0,6.777L41,43.388A7,7,0,0,1,34.873,47H17.127A7,7,0,0,1,11,43.388l-9.128-16.5a7,7,0,0,1,0-6.777L11,3.612A7,7,0,0,1,17.127,0Z" transform="translate(546 2064)" fill="#bcd6d8"/></g><g transform="translate(156 -2041)"><path d="M34.873,0A7,7,0,0,1,41,3.612l9.128,16.5a7,7,0,0,1,0,6.777L41,43.388A7,7,0,0,1,34.873,47H17.127A7,7,0,0,1,11,43.388l-9.128-16.5a7,7,0,0,1,0-6.777L11,3.612A7,7,0,0,1,17.127,0Z" transform="translate(546 2064)" fill="#bcd6d8"/></g><g transform="translate(320 -2041)"><path d="M34.873,0A7,7,0,0,1,41,3.612l9.128,16.5a7,7,0,0,1,0,6.777L41,43.388A7,7,0,0,1,34.873,47H17.127A7,7,0,0,1,11,43.388l-9.128-16.5a7,7,0,0,1,0-6.777L11,3.612A7,7,0,0,1,17.127,0Z" transform="translate(546 2064)" fill="#bcd6d8"/></g><g transform="translate(484 -2041)"><path d="M34.873,0A7,7,0,0,1,41,3.612l9.128,16.5a7,7,0,0,1,0,6.777L41,43.388A7,7,0,0,1,34.873,47H17.127A7,7,0,0,1,11,43.388l-9.128-16.5a7,7,0,0,1,0-6.777L11,3.612A7,7,0,0,1,17.127,0Z" transform="translate(546 2064)" fill="#bcd6d8"/></g><g transform="translate(648 -2041)"><path d="M34.873,0A7,7,0,0,1,41,3.612l9.128,16.5a7,7,0,0,1,0,6.777L41,43.388A7,7,0,0,1,34.873,47H17.127A7,7,0,0,1,11,43.388l-9.128-16.5a7,7,0,0,1,0-6.777L11,3.612A7,7,0,0,1,17.127,0Z" transform="translate(546 2064)" fill="#bcd6d8"/></g><g transform="translate(812 -2041)"><path d="M34.873,0A7,7,0,0,1,41,3.612l9.128,16.5a7,7,0,0,1,0,6.777L41,43.388A7,7,0,0,1,34.873,47H17.127A7,7,0,0,1,11,43.388l-9.128-16.5a7,7,0,0,1,0-6.777L11,3.612A7,7,0,0,1,17.127,0Z" transform="translate(546 2064)" fill="#bcd6d8"/></g><g transform="translate(976 -2041)"><path d="M34.873,0A7,7,0,0,1,41,3.612l9.128,16.5a7,7,0,0,1,0,6.777L41,43.388A7,7,0,0,1,34.873,47H17.127A7,7,0,0,1,11,43.388l-9.128-16.5a7,7,0,0,1,0-6.777L11,3.612A7,7,0,0,1,17.127,0Z" transform="translate(546 2064)" fill="#bcd6d8"/></g><g transform="translate(1140 -2041)"><path d="M34.873,0A7,7,0,0,1,41,3.612l9.128,16.5a7,7,0,0,1,0,6.777L41,43.388A7,7,0,0,1,34.873,47H17.127A7,7,0,0,1,11,43.388l-9.128-16.5a7,7,0,0,1,0-6.777L11,3.612A7,7,0,0,1,17.127,0Z" transform="translate(546 2064)" fill="#bcd6d8"/></g><g transform="translate(1304 -2041)"><path d="M34.873,0A7,7,0,0,1,41,3.612l9.128,16.5a7,7,0,0,1,0,6.777L41,43.388A7,7,0,0,1,34.873,47H17.127A7,7,0,0,1,11,43.388l-9.128-16.5a7,7,0,0,1,0-6.777L11,3.612A7,7,0,0,1,17.127,0Z" transform="translate(546 2064)" fill="#bcd6d8"/></g><g transform="translate(1468 -2041)"><path d="M34.873,0A7,7,0,0,1,41,3.612l9.128,16.5a7,7,0,0,1,0,6.777L41,43.388A7,7,0,0,1,34.873,47H17.127A7,7,0,0,1,11,43.388l-9.128-16.5a7,7,0,0,1,0-6.777L11,3.612A7,7,0,0,1,17.127,0Z" transform="translate(546 2064)" fill="#bcd6d8"/></g><g transform="translate(1632 -2041)"><path d="M34.873,0A7,7,0,0,1,41,3.612l9.128,16.5a7,7,0,0,1,0,6.777L41,43.388A7,7,0,0,1,34.873,47H17.127A7,7,0,0,1,11,43.388l-9.128-16.5a7,7,0,0,1,0-6.777L11,3.612A7,7,0,0,1,17.127,0Z" transform="translate(546 2064)" fill="#bcd6d8"/></g></g><g transform="translate(77.908 201)" clip-path="url(#f)"><g transform="translate(-500 -2041)"><path d="M94.127,0a24,24,0,0,1,20.8,12.021l22.176,38.5a24,24,0,0,1,0,23.958l-22.176,38.5A24,24,0,0,1,94.127,125H49.873a24,24,0,0,1-20.8-12.021L6.9,74.479a24,24,0,0,1,0-23.958l22.176-38.5A24,24,0,0,1,49.873,0Z" transform="translate(500 2041)" fill="#bcd6d8"/></g><g transform="translate(-336 -2041)"><path d="M94.127,0a24,24,0,0,1,20.8,12.021l22.176,38.5a24,24,0,0,1,0,23.958l-22.176,38.5A24,24,0,0,1,94.127,125H49.873a24,24,0,0,1-20.8-12.021L6.9,74.479a24,24,0,0,1,0-23.958l22.176-38.5A24,24,0,0,1,49.873,0Z" transform="translate(500 2041)" fill="#bcd6d8"/></g><g transform="translate(-172 -2041)"><path d="M94.127,0a24,24,0,0,1,20.8,12.021l22.176,38.5a24,24,0,0,1,0,23.958l-22.176,38.5A24,24,0,0,1,94.127,125H49.873a24,24,0,0,1-20.8-12.021L6.9,74.479a24,24,0,0,1,0-23.958l22.176-38.5A24,24,0,0,1,49.873,0Z" transform="translate(500 2041)" fill="#bcd6d8"/></g><g transform="translate(-8 -2041)"><path d="M94.127,0a24,24,0,0,1,20.8,12.021l22.176,38.5a24,24,0,0,1,0,23.958l-22.176,38.5A24,24,0,0,1,94.127,125H49.873a24,24,0,0,1-20.8-12.021L6.9,74.479a24,24,0,0,1,0-23.958l22.176-38.5A24,24,0,0,1,49.873,0Z" transform="translate(500 2041)" fill="#bcd6d8"/></g><g transform="translate(156 -2041)"><path d="M94.127,0a24,24,0,0,1,20.8,12.021l22.176,38.5a24,24,0,0,1,0,23.958l-22.176,38.5A24,24,0,0,1,94.127,125H49.873a24,24,0,0,1-20.8-12.021L6.9,74.479a24,24,0,0,1,0-23.958l22.176-38.5A24,24,0,0,1,49.873,0Z" transform="translate(500 2041)" fill="#bcd6d8"/></g><g transform="translate(320 -2041)"><path d="M94.127,0a24,24,0,0,1,20.8,12.021l22.176,38.5a24,24,0,0,1,0,23.958l-22.176,38.5A24,24,0,0,1,94.127,125H49.873a24,24,0,0,1-20.8-12.021L6.9,74.479a24,24,0,0,1,0-23.958l22.176-38.5A24,24,0,0,1,49.873,0Z" transform="translate(500 2041)" fill="#bcd6d8"/></g><g transform="translate(484 -2041)"><path d="M94.127,0a24,24,0,0,1,20.8,12.021l22.176,38.5a24,24,0,0,1,0,23.958l-22.176,38.5A24,24,0,0,1,94.127,125H49.873a24,24,0,0,1-20.8-12.021L6.9,74.479a24,24,0,0,1,0-23.958l22.176-38.5A24,24,0,0,1,49.873,0Z" transform="translate(500 2041)" fill="#bcd6d8"/></g><g transform="translate(648 -2041)"><path d="M94.127,0a24,24,0,0,1,20.8,12.021l22.176,38.5a24,24,0,0,1,0,23.958l-22.176,38.5A24,24,0,0,1,94.127,125H49.873a24,24,0,0,1-20.8-12.021L6.9,74.479a24,24,0,0,1,0-23.958l22.176-38.5A24,24,0,0,1,49.873,0Z" transform="translate(500 2041)" fill="#bcd6d8"/></g><g transform="translate(812 -2041)"><path d="M94.127,0a24,24,0,0,1,20.8,12.021l22.176,38.5a24,24,0,0,1,0,23.958l-22.176,38.5A24,24,0,0,1,94.127,125H49.873a24,24,0,0,1-20.8-12.021L6.9,74.479a24,24,0,0,1,0-23.958l22.176-38.5A24,24,0,0,1,49.873,0Z" transform="translate(500 2041)" fill="#bcd6d8"/></g><g transform="translate(976 -2041)"><path d="M94.127,0a24,24,0,0,1,20.8,12.021l22.176,38.5a24,24,0,0,1,0,23.958l-22.176,38.5A24,24,0,0,1,94.127,125H49.873a24,24,0,0,1-20.8-12.021L6.9,74.479a24,24,0,0,1,0-23.958l22.176-38.5A24,24,0,0,1,49.873,0Z" transform="translate(500 2041)" fill="#bcd6d8"/></g><g transform="translate(1140 -2041)"><path d="M94.127,0a24,24,0,0,1,20.8,12.021l22.176,38.5a24,24,0,0,1,0,23.958l-22.176,38.5A24,24,0,0,1,94.127,125H49.873a24,24,0,0,1-20.8-12.021L6.9,74.479a24,24,0,0,1,0-23.958l22.176-38.5A24,24,0,0,1,49.873,0Z" transform="translate(500 2041)" fill="#bcd6d8"/></g><g transform="translate(1304 -2041)"><path d="M94.127,0a24,24,0,0,1,20.8,12.021l22.176,38.5a24,24,0,0,1,0,23.958l-22.176,38.5A24,24,0,0,1,94.127,125H49.873a24,24,0,0,1-20.8-12.021L6.9,74.479a24,24,0,0,1,0-23.958l22.176-38.5A24,24,0,0,1,49.873,0Z" transform="translate(500 2041)" fill="#bcd6d8"/></g><g transform="translate(1468 -2041)"><path d="M94.127,0a24,24,0,0,1,20.8,12.021l22.176,38.5a24,24,0,0,1,0,23.958l-22.176,38.5A24,24,0,0,1,94.127,125H49.873a24,24,0,0,1-20.8-12.021L6.9,74.479a24,24,0,0,1,0-23.958l22.176-38.5A24,24,0,0,1,49.873,0Z" transform="translate(500 2041)" fill="#bcd6d8"/></g><g transform="translate(1632 -2041)"><path d="M94.127,0a24,24,0,0,1,20.8,12.021l22.176,38.5a24,24,0,0,1,0,23.958l-22.176,38.5A24,24,0,0,1,94.127,125H49.873a24,24,0,0,1-20.8-12.021L6.9,74.479a24,24,0,0,1,0-23.958l22.176-38.5A24,24,0,0,1,49.873,0Z" transform="translate(500 2041)" fill="#bcd6d8"/></g><g transform="translate(1796 -2041)"><path d="M94.127,0a24,24,0,0,1,20.8,12.021l22.176,38.5a24,24,0,0,1,0,23.958l-22.176,38.5A24,24,0,0,1,94.127,125H49.873a24,24,0,0,1-20.8-12.021L6.9,74.479a24,24,0,0,1,0-23.958l22.176-38.5A24,24,0,0,1,49.873,0Z" transform="translate(500 2041)" fill="#bcd6d8"/></g></g></g></g></g></svg>